<svg xmlns="http://www.w3.org/2000/svg" width="697" height="788" viewBox="0 0 697 788"><defs><mask id="i8tpb" width="2" height="2" x="-1" y="-1"><path fill="#fff" d="M18 4h570v662H18z"/><path d="M34.596 209.763S99.786-3.8 273.824 4.23c0 0 78.346 1.605 93.298 86.71 14.952 85.104-15.55 142.911 136.36 263.34 0 0 183.607 156.293 9.569 268.695 0 0-197.363 123.107-371.999-47.102C-33.583 405.664 26.223 237.596 34.596 209.763z"/></mask><filter id="i8tpa" width="794.2" height="899.1" x="-71" y="-85" filterUnits="userSpaceOnUse"><feOffset dx="46.2" dy="59.1" in="SourceGraphic" result="FeOffset1023Out"/><feGaussianBlur in="FeOffset1023Out" result="FeGaussianBlur1024Out" stdDeviation="31.6 31.6"/></filter></defs><g><g><g filter="url(#i8tpa)"><path fill="none" d="M34.596 209.763S99.786-3.8 273.824 4.23c0 0 78.346 1.605 93.298 86.71 14.952 85.104-15.55 142.911 136.36 263.34 0 0 183.607 156.293 9.569 268.695 0 0-197.363 123.107-371.999-47.102C-33.583 405.664 26.223 237.596 34.596 209.763z" mask="url(&quot;#i8tpb&quot;)"/><path fill="#432763" fill-opacity=".26" d="M34.596 209.763S99.786-3.8 273.824 4.23c0 0 78.346 1.605 93.298 86.71 14.952 85.104-15.55 142.911 136.36 263.34 0 0 183.607 156.293 9.569 268.695 0 0-197.363 123.107-371.999-47.102C-33.583 405.664 26.223 237.596 34.596 209.763z"/></g><path fill="#11347c" d="M34.596 209.763S99.786-3.8 273.824 4.23c0 0 78.346 1.605 93.298 86.71 14.952 85.104-15.55 142.911 136.36 263.34 0 0 183.607 156.293 9.569 268.695 0 0-197.363 123.107-371.999-47.102C-33.583 405.664 26.223 237.596 34.596 209.763z"/></g></g></svg>